<?xml version="1.0" encoding="UTF-8" standalone="no"?>
<!-- Created with Inkscape (http://www.inkscape.org/) -->

<svg
   version="1.1"
   id="svg2"
   width="300.72"
   height="175.45332"
   viewBox="0 0 300.72 175.45332"
   sodipodi:docname="logo-ntk.svg"
   inkscape:version="1.2.2 (b0a8486541, 2022-12-01)"
   xmlns:inkscape="http://www.inkscape.org/namespaces/inkscape"
   xmlns:sodipodi="http://sodipodi.sourceforge.net/DTD/sodipodi-0.dtd"
   xmlns="http://www.w3.org/2000/svg"
   xmlns:svg="http://www.w3.org/2000/svg">
  <defs
     id="defs6" />
  <sodipodi:namedview
     id="namedview4"
     pagecolor="#ffffff"
     bordercolor="#666666"
     borderopacity="1.0"
     inkscape:showpageshadow="2"
     inkscape:pageopacity="0.0"
     inkscape:pagecheckerboard="0"
     inkscape:deskcolor="#d1d1d1"
     showgrid="false"
     inkscape:zoom="1.3450871"
     inkscape:cx="150.17615"
     inkscape:cy="87.726663"
     inkscape:window-width="1920"
     inkscape:window-height="1115"
     inkscape:window-x="0"
     inkscape:window-y="0"
     inkscape:window-maximized="1"
     inkscape:current-layer="g10">
    <inkscape:page
       x="0"
       y="0"
       id="page8"
       width="300.72"
       height="175.45332" />
  </sodipodi:namedview>
  <g
     id="g10"
     inkscape:groupmode="layer"
     inkscape:label="Page 1"
     transform="matrix(1.3333333,0,0,-1.3333333,0,175.45333)">
    <g
       id="g12"
       transform="scale(0.1)">
      <path
         d="m 644.043,939.066 27.187,24.473 c 4.2,3.809 7.774,7.168 10.723,10.059 2.949,2.91 5.332,5.566 7.129,7.968 1.816,2.403 3.106,4.649 3.906,6.758 0.801,2.09 1.211,4.297 1.211,6.602 0,4.804 -1.113,8.244 -3.301,10.294 -2.207,2.05 -5.253,3.07 -9.16,3.07 -2.812,0 -5.058,-0.49 -6.758,-1.51 -1.699,-0.99 -3.027,-2.26 -3.984,-3.83 -0.957,-1.54 -1.601,-3.22 -1.953,-5.016 -0.352,-1.797 -0.527,-3.457 -0.527,-4.961 h -22.969 c 0,0.996 0.019,2.246 0.078,3.75 0.039,1.504 0.273,3.105 0.664,4.807 0.41,1.7 1.035,3.51 1.875,5.41 0.859,1.89 2.031,3.81 3.535,5.7 3.008,3.81 7.129,6.66 12.383,8.57 5.254,1.9 11.094,2.86 17.5,2.86 11.504,0 20.293,-2.56 26.348,-7.66 6.054,-5.12 9.082,-12.07 9.082,-20.879 0,-3.808 -0.41,-7.242 -1.27,-10.293 -0.859,-3.047 -2.324,-6.152 -4.433,-9.297 -2.09,-3.164 -5,-6.601 -8.711,-10.293 -3.692,-3.71 -8.399,-8.066 -14.102,-13.066 l -21.035,-18.32 50.156,1.054 v -17.421 h -73.574 v 21.171"
         style="fill:#ef2e31;fill-opacity:1;fill-rule:nonzero;stroke:none"
         id="path14" />
      <path
         d="m 764.316,937.875 -17.871,-36.953 h -15.449 l 11.094,36.953 h 22.226"
         style="fill:#ef2e31;fill-opacity:1;fill-rule:nonzero;stroke:none"
         id="path16" />
      <path
         d="m 798.398,943.715 c 0,-0.586 0.137,-1.543 0.391,-2.852 0.234,-1.289 0.82,-2.597 1.719,-3.906 0.898,-1.289 2.187,-2.441 3.828,-3.437 1.66,-1.016 3.789,-1.504 6.387,-1.504 1.992,0 3.925,0.371 5.781,1.113 1.855,0.762 3.496,1.934 4.961,3.535 1.445,1.602 2.598,3.633 3.437,6.074 0.86,2.461 1.289,5.43 1.289,8.946 0,2.5 -0.253,4.882 -0.761,7.129 -0.489,2.246 -1.328,4.257 -2.481,6.015 -1.152,1.738 -2.597,3.125 -4.336,4.121 -1.758,0.996 -3.886,1.504 -6.386,1.504 -2.5,0 -4.59,-0.43 -6.231,-1.269 -1.66,-0.86 -2.988,-1.895 -3.984,-3.086 -0.996,-1.211 -1.719,-2.383 -2.188,-3.535 -0.449,-1.149 -0.761,-2.032 -0.957,-2.618 l -21.777,0.586 2.402,62.029 h 63.516 v -17.13 h -43.692 l -1.367,-25.973 c 0.801,0.707 1.758,1.504 2.852,2.402 1.113,0.899 2.441,1.739 3.984,2.481 1.563,0.742 3.379,1.367 5.488,1.875 2.09,0.508 4.61,0.762 7.5,0.762 4.219,0 8.184,-0.762 11.934,-2.266 3.77,-1.504 7.031,-3.672 9.844,-6.523 2.793,-2.852 5.039,-6.368 6.679,-10.508 1.661,-4.16 2.481,-8.848 2.481,-14.043 0,-4.512 -0.684,-9.004 -2.031,-13.516 -1.348,-4.512 -3.516,-8.555 -6.524,-12.168 -3.008,-3.594 -6.894,-6.562 -11.64,-8.848 -4.766,-2.304 -10.489,-3.457 -17.188,-3.457 -5.508,0 -10.879,0.821 -16.074,2.481 -5.215,1.641 -9.609,4.629 -13.223,8.926 -2.597,3.203 -4.199,6.289 -4.804,9.238 -0.586,2.953 -0.938,5.43 -1.036,7.422 h 22.207"
         style="fill:#ef2e31;fill-opacity:1;fill-rule:nonzero;stroke:none"
         id="path18" />
      <path
         d="m 886.699,993.734 14.278,-24.785 14.863,24.785 h 23.125 l -24.629,-36.953 25.371,-38.886 h -26.269 l -15.313,27.773 -15.469,-27.773 h -23.269 l 25.359,40.703 -24.308,35.136 h 26.261"
         style="fill:#ef2e31;fill-opacity:1;fill-rule:nonzero;stroke:none"
         id="path20" />
      <path
         d="m 2122.25,869.555 v 26.425 h -27.64 c -0.29,0 -0.93,0 -1.95,0 -0.99,0 -2.09,0.02 -3.3,0.079 -1.19,0.062 -2.36,0.097 -3.52,0.156 -1.15,0.039 -2.09,0.078 -2.79,0.078 z m 16.82,-16.817 h -20.28 l -61.71,42.051 v 22.363 l 64.72,-0.136 v 14.257 h 17.27 v -14.257 h 22.83 v -22.227 h -22.83 v -42.051"
         style="fill:#ef2e31;fill-opacity:1;fill-rule:nonzero;stroke:none"
         id="path22" />
      <path
         d="m 2141.92,974.359 36.95,-17.871 V 941.02 l -36.95,11.113 v 22.226"
         style="fill:#ef2e31;fill-opacity:1;fill-rule:nonzero;stroke:none"
         id="path24" />
      <path
         d="m 2136.06,1008.46 c 0.61,0 1.56,0.14 2.85,0.37 1.31,0.26 2.62,0.84 3.91,1.74 1.31,0.9 2.46,2.17 3.45,3.83 1,1.64 1.51,3.77 1.51,6.39 0,1.99 -0.37,3.92 -1.13,5.78 -0.75,1.83 -1.92,3.49 -3.52,4.94 -1.6,1.46 -3.63,2.62 -6.09,3.45 -2.45,0.87 -5.43,1.29 -8.93,1.29 -2.5,0 -4.88,-0.25 -7.13,-0.75 -2.26,-0.52 -4.26,-1.34 -6.01,-2.49 -1.74,-1.15 -3.13,-2.6 -4.13,-4.35 -0.99,-1.74 -1.5,-3.87 -1.5,-6.37 0,-2.52 0.43,-4.59 1.27,-6.25 0.86,-1.64 1.88,-2.97 3.09,-3.97 1.19,-1.01 2.38,-1.73 3.51,-2.18 1.15,-0.45 2.03,-0.78 2.64,-0.98 l -0.61,-21.777 -62.01,2.406 v 63.541 h 17.11 v -43.72 l 26,-1.35 c -0.71,0.8 -1.51,1.76 -2.41,2.85 -0.91,1.12 -1.73,2.43 -2.48,3.99 -0.76,1.54 -1.38,3.38 -1.87,5.49 -0.51,2.09 -0.76,4.59 -0.76,7.5 0,4.2 0.76,8.18 2.24,11.93 1.51,3.76 3.69,7.04 6.55,9.85 2.85,2.79 6.34,5.02 10.5,6.68 4.16,1.64 8.83,2.48 14.05,2.48 4.51,0 9,-0.68 13.51,-2.03 4.51,-1.35 8.56,-3.54 12.17,-6.52 3.59,-3.01 6.54,-6.9 8.85,-11.65 2.3,-4.77 3.46,-10.49 3.46,-17.21 0,-5.51 -0.82,-10.86 -2.48,-16.05 -1.65,-5.22 -4.63,-9.613 -8.93,-13.226 -3.2,-2.598 -6.29,-4.199 -9.24,-4.805 -2.95,-0.605 -5.43,-0.957 -7.44,-1.055 v 22.226"
         style="fill:#ef2e31;fill-opacity:1;fill-rule:nonzero;stroke:none"
         id="path26" />
      <path
         d="m 2086.06,1096.75 24.78,14.28 -24.78,14.86 v 23.13 l 36.93,-24.63 38.91,25.37 v -26.27 l -27.79,-15.31 27.79,-15.47 v -23.28 l -40.7,25.39 -35.14,-24.34 v 26.27"
         style="fill:#ef2e31;fill-opacity:1;fill-rule:nonzero;stroke:none"
         id="path28" />
      <path
         d="m 19.0938,449.543 h 26.4257 v 27.617 c 0,0.313 0,0.957 0,1.953 0,0.996 0.0157,2.11 0.0743,3.297 0.0429,1.215 0.1015,2.387 0.1601,3.539 0.0352,1.153 0.0547,2.071 0.0547,2.774 z M 2.27344,432.727 V 453 L 44.3047,514.699 H 66.6914 L 66.5313,449.992 H 80.8086 V 432.727 H 66.5313 V 409.895 H 44.3047 v 22.832 H 2.27344"
         style="fill:#ef2e31;fill-opacity:1;fill-rule:nonzero;stroke:none"
         id="path30" />
      <path
         d="m 115.051,485.734 14.258,-24.785 14.863,24.785 h 23.125 l -24.633,-36.953 25.395,-38.886 H 141.77 l -15.317,27.773 -15.469,-27.773 H 87.707 l 25.391,40.703 -24.3363,35.136 h 26.2893"
         style="fill:#ef2e31;fill-opacity:1;fill-rule:nonzero;stroke:none"
         id="path32" />
      <path
         d="m 1515.26,485.734 14.28,-24.785 14.86,24.785 h 23.12 l -24.62,-36.953 25.37,-38.886 H 1542 l -15.32,27.773 -15.46,-27.773 h -23.29 l 25.38,40.703 -24.32,35.136 h 26.27"
         style="fill:#ef2e31;fill-opacity:1;fill-rule:nonzero;stroke:none"
         id="path34" />
      <path
         d="M 0,1315.85 H 213.547 L 471.902,773.402 V 1315.85 H 609.18 V 626.613 H 406.121 L 139.188,1198.59 V 626.613 H 0 v 689.237"
         style="fill:#231f20;fill-opacity:1;fill-rule:nonzero;stroke:none"
         id="path36" />
      <path
         d="M 962.859,1201.46 H 757.898 v 114.39 H 1316.54 V 1201.46 H 1111.58 V 626.613 H 962.859 v 574.847"
         style="fill:#231f20;fill-opacity:1;fill-rule:nonzero;stroke:none"
         id="path38" />
      <path
         d="m 1462.39,1313.95 h 147.75 v -296.49 l 230.7,298.39 H 2013.4 L 1760.79,1006.98 2035.34,626.613 H 1851.35 L 1610.14,977.426 V 626.613 h -147.75 v 687.337"
         style="fill:#231f20;fill-opacity:1;fill-rule:nonzero;stroke:none"
         id="path40" />
      <path
         d="M 0.410156,313.148 H 34.0156 l 40.6485,-85.199 v 85.199 H 96.2617 V 204.852 H 64.3125 l -42.0039,90 v -90 H 0.410156 v 108.296"
         style="fill:#231f20;fill-opacity:1;fill-rule:nonzero;stroke:none"
         id="path42" />
      <path
         d="m 152.965,292.609 h -12.004 l 12.453,21.75 h 20.098 z m 8.695,-52.05 c -3.597,0.293 -6.875,0.242 -9.824,-0.161 -2.949,-0.398 -5.527,-1.117 -7.727,-2.168 -2.199,-1.05 -3.898,-2.429 -5.093,-4.128 -1.203,-1.704 -1.805,-3.653 -1.805,-5.852 0,-1.301 0.227,-2.578 0.676,-3.828 0.449,-1.25 1.129,-2.391 2.023,-3.442 0.903,-1.05 2.028,-1.898 3.375,-2.55 1.356,-0.66 2.926,-0.981 4.727,-0.981 2,0 3.801,0.43 5.402,1.281 1.598,0.852 2.949,1.879 4.047,3.079 2.004,2.39 3.199,5.089 3.598,8.089 0.402,3 0.601,6.563 0.601,10.661 z m 2.852,-35.707 c -0.403,2.296 -0.625,4.328 -0.672,6.078 -0.055,1.75 -0.078,3.172 -0.078,4.281 -2.102,-3 -4.274,-5.332 -6.528,-6.981 -2.25,-1.648 -4.375,-2.851 -6.375,-3.601 -1.996,-0.75 -3.871,-1.199 -5.625,-1.348 -1.75,-0.152 -3.125,-0.222 -4.121,-0.222 -5.504,0 -9.652,0.64 -12.453,1.941 -2.801,1.301 -4.949,2.66 -6.449,4.051 -2.301,2.308 -3.973,4.91 -5.023,7.808 -1.051,2.903 -1.579,5.852 -1.579,8.84 0,1.512 0.176,3.27 0.528,5.332 0.347,2.051 1.097,4.149 2.254,6.289 1.144,2.16 2.769,4.282 4.871,6.379 2.097,2.102 4.898,3.961 8.398,5.563 2.301,0.988 4.824,1.797 7.578,2.386 2.75,0.614 5.473,1.032 8.172,1.282 2.703,0.242 5.301,0.402 7.801,0.449 2.5,0.051 4.652,0.082 6.449,0.082 0,2.488 -0.051,4.437 -0.144,5.848 -0.106,1.39 -0.407,2.793 -0.907,4.203 -0.496,1.386 -1.199,2.5 -2.097,3.297 -0.899,0.8 -1.828,1.421 -2.774,1.871 -0.953,0.449 -1.898,0.742 -2.851,0.902 -0.953,0.148 -1.676,0.227 -2.172,0.227 -1.606,0 -3.152,-0.36 -4.656,-1.059 -1.496,-0.691 -2.746,-1.75 -3.75,-3.141 -0.801,-1.3 -1.274,-2.527 -1.418,-3.687 -0.153,-1.141 -0.231,-2.16 -0.231,-3.063 h -21.75 c 0,0.993 0.074,2.211 0.227,3.672 0.148,1.438 0.527,3 1.129,4.649 0.593,1.652 1.445,3.3 2.547,4.949 1.097,1.652 2.648,3.172 4.648,4.57 3.5,2.5 7.301,4.153 11.402,4.949 4.098,0.801 7.95,1.204 11.547,1.204 1.602,0 3.551,-0.102 5.852,-0.301 2.297,-0.199 4.699,-0.653 7.199,-1.352 2.5,-0.699 4.973,-1.668 7.43,-2.918 2.445,-1.25 4.621,-2.98 6.519,-5.172 1.301,-1.507 2.301,-3.179 3,-5.027 0.699,-1.852 1.227,-3.633 1.578,-5.332 0.348,-1.691 0.547,-3.281 0.602,-4.719 0.047,-1.449 0.07,-2.633 0.07,-3.531 l 0.153,-30.449 c 0,-3.199 0.121,-6.391 0.375,-9.602 0.246,-3.199 0.722,-6.39 1.421,-9.597 h -20.097"
         style="fill:#231f20;fill-opacity:1;fill-rule:nonzero;stroke:none"
         id="path44" />
      <path
         d="m 205.465,262 c 0,0.898 -0.027,2.18 -0.078,3.832 -0.051,1.648 -0.121,3.418 -0.227,5.316 -0.097,1.911 -0.222,3.723 -0.371,5.481 -0.148,1.75 -0.277,3.18 -0.375,4.281 h 20.852 l 0.449,-14.551 c 0.695,1.59 1.594,3.301 2.699,5.102 1.098,1.789 2.598,3.437 4.5,4.949 1.895,1.488 4.348,2.692 7.352,3.59 2.996,0.91 6.746,1.25 11.25,1.059 v -19.957 c -5.602,0.5 -10,0.25 -13.203,-0.75 -3.2,-0.993 -5.602,-2.454 -7.2,-4.34 -1.601,-1.91 -2.578,-4.09 -2.925,-6.532 -0.352,-2.449 -0.528,-4.878 -0.528,-7.269 V 204.852 H 205.465 V 262"
         style="fill:#231f20;fill-opacity:1;fill-rule:nonzero;stroke:none"
         id="path46" />
      <path
         d="m 282.41,241.898 c 0,-8.5 1.399,-14.668 4.199,-18.519 2.801,-3.848 6.95,-5.77 12.454,-5.77 2.398,0 4.625,0.391 6.675,1.192 2.043,0.801 3.77,2.211 5.168,4.211 1.403,1.988 2.5,4.668 3.305,8.019 0.801,3.348 1.199,7.528 1.199,12.528 0,2.5 -0.176,5.14 -0.523,7.941 -0.352,2.809 -1.102,5.398 -2.25,7.809 -1.153,2.39 -2.828,4.371 -5.024,5.91 -2.203,1.562 -5.152,2.332 -8.851,2.332 -4.106,0 -7.254,-1.031 -9.449,-3.071 -2.204,-2.05 -3.805,-4.449 -4.801,-7.199 -1,-2.75 -1.602,-5.582 -1.801,-8.48 -0.199,-2.903 -0.301,-5.199 -0.301,-6.903 z m -22.801,0.153 c 0,4.597 0.649,9.281 1.954,14.019 1.296,4.762 3.449,9.09 6.449,12.981 3,3.898 7,7.097 12,9.597 5,2.5 11.25,3.75 18.75,3.75 6.898,0 12.824,-1.066 17.769,-3.218 4.953,-2.149 9.028,-5.051 12.231,-8.7 3.195,-3.648 5.551,-7.871 7.051,-12.679 1.496,-4.789 2.25,-9.852 2.25,-15.141 0,-5.308 -0.778,-10.398 -2.325,-15.308 -1.554,-4.903 -3.957,-9.223 -7.203,-12.973 -3.254,-3.75 -7.375,-6.719 -12.375,-8.93 -5.004,-2.199 -10.949,-3.289 -17.847,-3.289 -5.403,0 -10.454,0.82 -15.153,2.469 -4.703,1.652 -8.801,4.152 -12.301,7.5 -3.5,3.351 -6.25,7.519 -8.246,12.531 -2.004,4.988 -3.004,10.789 -3.004,17.391"
         style="fill:#231f20;fill-opacity:1;fill-rule:nonzero;stroke:none"
         id="path48" />
      <path
         d="m 375.559,241.602 c 0,-3.204 0.277,-6.223 0.828,-9.071 0.551,-2.851 1.429,-5.383 2.636,-7.582 1.207,-2.199 2.79,-3.937 4.747,-5.238 1.96,-1.313 4.343,-1.961 7.16,-1.961 3.211,0 6.074,0.852 8.586,2.551 2.515,1.699 4.371,3.699 5.578,6 1.703,3.199 2.738,6.5 3.09,9.898 0.351,3.403 0.527,6.063 0.527,7.949 0,7.5 -1.484,13.204 -4.449,17.102 -2.961,3.91 -7.004,5.852 -12.129,5.852 -3.715,0 -6.68,-0.973 -8.891,-2.922 -2.211,-1.95 -3.867,-4.282 -4.972,-6.969 -1.106,-2.711 -1.832,-5.512 -2.184,-8.41 -0.356,-2.903 -0.527,-5.289 -0.527,-7.199 z m 32.402,71.546 H 430.16 V 217.16 c 0,-2.308 0.051,-4.578 0.149,-6.828 0.097,-2.25 0.25,-4.082 0.449,-5.48 h -22.352 l -0.597,10.949 c -0.801,-1.403 -1.704,-2.801 -2.711,-4.199 -1,-1.391 -2.657,-2.852 -4.961,-4.34 -2.809,-1.813 -5.535,-2.903 -8.199,-3.301 -2.657,-0.402 -4.836,-0.609 -6.543,-0.609 -10.227,0 -18.172,3.296 -23.836,9.898 -5.668,6.602 -8.5,15.852 -8.5,27.762 0,6.297 0.828,11.937 2.484,16.937 1.652,5 3.934,9.25 6.84,12.75 2.91,3.5 6.422,6.199 10.531,8.102 4.106,1.898 8.672,2.847 13.688,2.847 3.41,0 6.343,-0.418 8.796,-1.269 2.457,-0.848 4.54,-1.82 6.243,-2.93 1.703,-1.097 3.054,-2.23 4.062,-3.367 1,-1.152 1.754,-2.082 2.258,-2.781 v 41.847"
         style="fill:#231f20;fill-opacity:1;fill-rule:nonzero;stroke:none"
         id="path50" />
      <path
         d="m 452.656,267.102 c 0,0.097 0,0.617 0,1.578 0,0.949 -0.023,2.101 -0.074,3.449 -0.055,1.351 -0.102,2.82 -0.148,4.422 -0.051,1.597 -0.129,3.051 -0.227,4.359 h 21.301 l 0.597,-11.41 c 0.5,0.898 1.301,2.082 2.403,3.531 1.097,1.438 2.597,2.899 4.5,4.348 1.898,1.453 4.301,2.703 7.199,3.75 2.902,1.051 6.398,1.582 10.5,1.582 3.699,0 6.898,-0.512 9.598,-1.512 2.703,-0.988 4.976,-2.23 6.828,-3.668 1.847,-1.461 3.301,-3 4.347,-4.652 1.051,-1.649 1.825,-3.117 2.329,-4.418 0.398,-1.199 0.75,-2.391 1.046,-3.531 0.305,-1.149 0.528,-2.551 0.676,-4.2 0.153,-1.648 0.246,-3.679 0.301,-6.07 0.051,-2.398 0.074,-5.351 0.074,-8.859 v -40.949 h -22.644 v 47.097 c 0,1.61 -0.055,3.082 -0.153,4.43 -0.101,1.34 -0.449,2.621 -1.05,3.832 -0.801,1.687 -2.079,3.187 -3.829,4.5 -1.75,1.301 -4.074,1.937 -6.972,1.937 -2.403,0 -4.629,-0.519 -6.676,-1.566 -2.051,-1.051 -3.676,-2.473 -4.879,-4.281 -0.695,-0.992 -1.32,-2.449 -1.875,-4.34 -0.547,-1.91 -0.816,-4.313 -0.816,-7.199 v -44.41 h -22.356 v 62.25"
         style="fill:#231f20;fill-opacity:1;fill-rule:nonzero;stroke:none"
         id="path52" />
      <path
         d="m 560.055,292.609 h -11.996 l 12.449,21.75 h 20.097 z M 547.008,280.75 h 22.195 v -75.898 h -22.195 v 75.898"
         style="fill:#231f20;fill-opacity:1;fill-rule:nonzero;stroke:none"
         id="path54" />
      <path
         d="m 681.105,205.91 c -3.601,-1.012 -6.925,-1.648 -9.976,-1.949 -3.047,-0.313 -5.477,-0.449 -7.274,-0.449 -5.636,0 -9.968,0.769 -12.988,2.32 -3.019,1.539 -5.23,3.398 -6.644,5.547 -1.41,2.152 -2.243,4.371 -2.489,6.68 -0.254,2.293 -0.379,4.25 -0.379,5.851 v 41.539 h -14.546 v 14.852 h 14.546 v 14.758 l 22.2,8.05 v -22.808 h 18.004 V 265.449 H 663.555 V 231.25 c 0,-1.699 0.074,-3.25 0.222,-4.648 0.153,-1.391 0.532,-2.602 1.129,-3.59 0.598,-1.012 1.574,-1.762 2.926,-2.262 1.348,-0.5 3.273,-0.75 5.773,-0.75 1.7,0 3.028,0.031 3.973,0.082 0.953,0.047 2.125,0.168 3.527,0.367 V 205.91"
         style="fill:#231f20;fill-opacity:1;fill-rule:nonzero;stroke:none"
         id="path56" />
      <path
         d="m 740.961,251.059 c 0,0.89 -0.078,2.273 -0.231,4.121 -0.144,1.851 -0.648,3.73 -1.496,5.621 -0.851,1.91 -2.171,3.578 -3.976,5.031 -1.797,1.449 -4.301,2.18 -7.5,2.18 -2.399,0 -4.477,-0.481 -6.227,-1.43 -1.746,-0.953 -3.195,-2.203 -4.347,-3.75 -1.149,-1.551 -2.024,-3.363 -2.621,-5.402 -0.602,-2.051 -0.954,-4.18 -1.051,-6.371 z m -28.203,-13.957 c 0,-1.192 0.078,-2.954 0.226,-5.243 0.153,-2.308 0.727,-4.55 1.727,-6.75 0.996,-2.211 2.523,-4.129 4.574,-5.777 2.047,-1.652 5.028,-2.473 8.922,-2.473 2.801,0 5.426,0.692 7.879,2.102 2.449,1.391 4.223,4.187 5.324,8.391 h 20.25 c -0.101,-0.891 -0.222,-1.973 -0.375,-3.223 -0.152,-1.25 -0.472,-2.578 -0.976,-3.969 -0.5,-1.41 -1.227,-2.898 -2.172,-4.512 -0.953,-1.597 -2.176,-3.199 -3.68,-4.796 -2.797,-2.903 -6.523,-5.102 -11.172,-6.59 C 738.633,202.75 733.512,202 727.91,202 c -1.601,0 -3.523,0.102 -5.777,0.309 -2.25,0.203 -4.606,0.652 -7.055,1.339 -2.449,0.711 -4.887,1.653 -7.305,2.852 -2.418,1.211 -4.632,2.859 -6.644,4.961 -3.527,3.59 -6.039,7.898 -7.555,12.898 -1.508,5 -2.265,10.539 -2.265,16.653 0,3.09 0.222,6.297 0.679,9.597 0.453,3.301 1.258,6.52 2.414,9.672 1.161,3.149 2.77,6.149 4.836,9 2.067,2.848 4.707,5.367 7.93,7.578 2.922,2 6.156,3.539 9.711,4.641 3.555,1.109 7.434,1.648 11.633,1.648 2.699,0 5.496,-0.296 8.398,-0.886 2.899,-0.614 5.695,-1.614 8.399,-3 2.699,-1.41 5.254,-3.282 7.652,-5.633 2.398,-2.348 4.445,-5.277 6.148,-8.777 1.301,-2.59 2.274,-5.204 2.926,-7.801 0.653,-2.602 1.102,-5.129 1.348,-7.571 0.25,-2.449 0.379,-4.718 0.379,-6.82 0,-2.101 -0.055,-3.961 -0.153,-5.558 h -50.851"
         style="fill:#231f20;fill-opacity:1;fill-rule:nonzero;stroke:none"
         id="path58" />
      <path
         d="m 821.277,253.75 c -0.093,0.699 -0.246,1.809 -0.449,3.301 -0.199,1.508 -0.64,3.058 -1.34,4.648 -0.699,1.602 -1.672,3.012 -2.918,4.211 -1.242,1.192 -2.914,1.801 -5.004,1.801 -2.589,0 -4.664,-0.879 -6.207,-2.629 -1.546,-1.75 -2.714,-3.883 -3.507,-6.383 -0.797,-2.5 -1.325,-5.129 -1.575,-7.867 -0.25,-2.75 -0.371,-5.184 -0.371,-7.273 0,-1.11 0.051,-2.661 0.149,-4.649 0.097,-2.012 0.32,-4.148 0.668,-6.461 0.347,-2.289 0.894,-4.551 1.64,-6.75 0.742,-2.187 1.762,-4 3.059,-5.398 1.086,-1.102 2.156,-1.789 3.195,-2.102 1.047,-0.301 1.965,-0.449 2.762,-0.449 0.594,0 1.41,0.129 2.453,0.379 1.047,0.25 2.086,0.84 3.133,1.801 1.039,0.949 2.012,2.39 2.902,4.351 0.895,1.949 1.442,4.629 1.637,8.028 h 21.902 c -0.101,-1.508 -0.254,-3.161 -0.453,-4.957 -0.199,-1.793 -0.625,-3.672 -1.273,-5.622 -0.649,-1.949 -1.602,-3.96 -2.848,-6 -1.254,-2.05 -2.977,-3.968 -5.176,-5.781 -2.699,-2.289 -5.773,-4.039 -9.222,-5.238 -3.454,-1.199 -7.579,-1.813 -12.379,-1.813 -5.098,0 -9.797,0.704 -14.102,2.102 -4.297,1.41 -8.195,4.051 -11.699,7.949 -3.301,3.801 -5.723,8.199 -7.274,13.199 -1.546,5 -2.324,10.551 -2.324,16.653 0,8.609 1.371,15.5 4.125,20.711 2.75,5.187 6.028,9.168 9.824,11.918 3.797,2.742 7.7,4.55 11.7,5.402 4,0.848 7.25,1.27 9.75,1.27 3.504,0 7.078,-0.52 10.726,-1.571 3.649,-1.051 6.977,-2.699 9.973,-4.949 3.004,-2.25 5.449,-5.184 7.351,-8.773 1.903,-3.61 2.848,-7.95 2.848,-13.059 h -21.676"
         style="fill:#231f20;fill-opacity:1;fill-rule:nonzero;stroke:none"
         id="path60" />
      <path
         d="m 859.762,313.148 h 22.051 v -42.777 c 0.593,0.891 1.445,1.969 2.546,3.258 1.102,1.293 2.496,2.531 4.2,3.711 1.699,1.199 3.777,2.211 6.226,3.051 2.445,0.839 5.426,1.257 8.926,1.257 2.797,0 5.348,-0.316 7.644,-0.976 2.301,-0.641 4.375,-1.442 6.227,-2.391 1.852,-0.961 3.453,-2.031 4.801,-3.23 1.351,-1.192 2.476,-2.391 3.375,-3.59 1.398,-1.91 2.578,-4.563 3.523,-7.949 0.953,-3.403 1.426,-7.614 1.426,-12.602 v -46.058 h -22.195 v 45.41 c 0,1.109 -0.078,2.578 -0.227,4.437 -0.148,1.852 -0.594,3.68 -1.336,5.492 -0.742,1.797 -1.953,3.36 -3.633,4.661 -1.683,1.296 -4.062,1.957 -7.128,1.957 -1.586,0 -3.204,-0.258 -4.856,-0.75 -1.648,-0.508 -3.172,-1.36 -4.574,-2.559 -1.403,-1.199 -2.547,-2.789 -3.445,-4.738 -0.907,-1.953 -1.356,-4.43 -1.356,-7.442 l 0.152,-46.468 h -22.347 v 108.296"
         style="fill:#231f20;fill-opacity:1;fill-rule:nonzero;stroke:none"
         id="path62" />
      <path
         d="m 954.105,267.102 c 0,0.097 0,0.617 0,1.578 0,0.949 -0.023,2.101 -0.074,3.449 -0.051,1.351 -0.101,2.82 -0.148,4.422 -0.051,1.597 -0.129,3.051 -0.227,4.359 h 21.301 l 0.602,-11.41 c 0.496,0.898 1.296,2.082 2.402,3.531 1.098,1.438 2.598,2.899 4.496,4.348 1.898,1.453 4.301,2.703 7.199,3.75 2.903,1.051 6.399,1.582 10.504,1.582 3.7,0 6.9,-0.512 9.6,-1.512 2.7,-0.988 4.97,-2.23 6.82,-3.668 1.85,-1.461 3.3,-3 4.35,-4.652 1.05,-1.649 1.82,-3.117 2.33,-4.418 0.4,-1.199 0.75,-2.391 1.05,-3.531 0.3,-1.149 0.52,-2.551 0.67,-4.2 0.15,-1.648 0.25,-3.679 0.3,-6.07 0.05,-2.398 0.08,-5.351 0.08,-8.859 v -40.949 h -22.65 v 47.097 c 0,1.61 -0.05,3.082 -0.15,4.43 -0.1,1.34 -0.45,2.621 -1.05,3.832 -0.8,1.687 -2.08,3.187 -3.83,4.5 -1.746,1.301 -4.071,1.937 -6.973,1.937 -2.402,0 -4.629,-0.519 -6.676,-1.566 -2.051,-1.051 -3.676,-2.473 -4.875,-4.281 -0.699,-0.992 -1.324,-2.449 -1.875,-4.34 -0.547,-1.91 -0.82,-4.313 -0.82,-7.199 v -44.41 h -22.356 v 62.25"
         style="fill:#231f20;fill-opacity:1;fill-rule:nonzero;stroke:none"
         id="path64" />
      <path
         d="m 1048.46,280.75 h 22.19 v -75.898 h -22.19 z m -0.75,32.398 h 23.7 v -19.347 h -23.7 v 19.347"
         style="fill:#231f20;fill-opacity:1;fill-rule:nonzero;stroke:none"
         id="path66" />
      <path
         d="m 1133.28,253.75 c -0.1,0.699 -0.25,1.809 -0.45,3.301 -0.2,1.508 -0.65,3.058 -1.35,4.648 -0.69,1.602 -1.67,3.012 -2.91,4.211 -1.25,1.192 -2.92,1.801 -5.01,1.801 -2.59,0 -4.66,-0.879 -6.2,-2.629 -1.55,-1.75 -2.72,-3.883 -3.51,-6.383 -0.8,-2.5 -1.33,-5.129 -1.57,-7.867 -0.25,-2.75 -0.38,-5.184 -0.38,-7.273 0,-1.11 0.05,-2.661 0.15,-4.649 0.1,-2.012 0.32,-4.148 0.67,-6.461 0.35,-2.289 0.89,-4.551 1.64,-6.75 0.74,-2.187 1.76,-4 3.06,-5.398 1.09,-1.102 2.16,-1.789 3.2,-2.102 1.04,-0.301 1.96,-0.449 2.75,-0.449 0.6,0 1.42,0.129 2.46,0.379 1.05,0.25 2.09,0.84 3.13,1.801 1.04,0.949 2.01,2.39 2.91,4.351 0.89,1.949 1.44,4.629 1.63,8.028 h 21.91 c -0.11,-1.508 -0.26,-3.161 -0.46,-4.957 -0.2,-1.793 -0.62,-3.672 -1.27,-5.622 -0.65,-1.949 -1.6,-3.96 -2.85,-6 -1.25,-2.05 -2.98,-3.968 -5.18,-5.781 -2.7,-2.289 -5.77,-4.039 -9.22,-5.238 -3.45,-1.199 -7.58,-1.813 -12.38,-1.813 -5.09,0 -9.8,0.704 -14.1,2.102 -4.3,1.41 -8.2,4.051 -11.7,7.949 -3.3,3.801 -5.72,8.199 -7.27,13.199 -1.55,5 -2.33,10.551 -2.33,16.653 0,8.609 1.37,15.5 4.13,20.711 2.75,5.187 6.02,9.168 9.82,11.918 3.8,2.742 7.7,4.55 11.7,5.402 4,0.848 7.25,1.27 9.75,1.27 3.5,0 7.08,-0.52 10.73,-1.571 3.65,-1.051 6.97,-2.699 9.97,-4.949 3,-2.25 5.45,-5.184 7.35,-8.773 1.9,-3.61 2.85,-7.95 2.85,-13.059 h -21.67"
         style="fill:#231f20;fill-opacity:1;fill-rule:nonzero;stroke:none"
         id="path68" />
      <path
         d="m 1171.46,313.148 h 22.2 v -63.75 l 22.95,31.661 h 25.05 l -25.95,-33 27.6,-43.207 h -26.25 l -23.4,41.25 v -41.25 h -22.2 v 108.296"
         style="fill:#231f20;fill-opacity:1;fill-rule:nonzero;stroke:none"
         id="path70" />
      <path
         d="m 1289.21,292.609 h -12 l 12.45,21.75 h 20.1 z m 8.7,-52.05 c -3.6,0.293 -6.88,0.242 -9.83,-0.161 -2.95,-0.398 -5.53,-1.117 -7.72,-2.168 -2.21,-1.05 -3.9,-2.429 -5.1,-4.128 -1.2,-1.704 -1.8,-3.653 -1.8,-5.852 0,-1.301 0.22,-2.578 0.67,-3.828 0.45,-1.25 1.13,-2.391 2.03,-3.442 0.9,-1.05 2.02,-1.898 3.37,-2.55 1.35,-0.66 2.93,-0.981 4.73,-0.981 1.99,0 3.8,0.43 5.4,1.281 1.59,0.852 2.95,1.879 4.05,3.079 2,2.39 3.19,5.089 3.59,8.089 0.41,3 0.61,6.563 0.61,10.661 z m 2.85,-35.707 c -0.4,2.296 -0.63,4.328 -0.68,6.078 -0.05,1.75 -0.08,3.172 -0.08,4.281 -2.09,-3 -4.27,-5.332 -6.52,-6.981 -2.25,-1.648 -4.37,-2.851 -6.38,-3.601 -1.99,-0.75 -3.87,-1.199 -5.62,-1.348 -1.75,-0.152 -3.13,-0.222 -4.12,-0.222 -5.5,0 -9.65,0.64 -12.45,1.941 -2.81,1.301 -4.95,2.66 -6.45,4.051 -2.3,2.308 -3.98,4.91 -5.03,7.808 -1.05,2.903 -1.57,5.852 -1.57,8.84 0,1.512 0.17,3.27 0.52,5.332 0.35,2.051 1.1,4.149 2.25,6.289 1.15,2.16 2.78,4.282 4.88,6.379 2.1,2.102 4.89,3.961 8.4,5.563 2.3,0.988 4.82,1.797 7.57,2.386 2.75,0.614 5.48,1.032 8.18,1.282 2.7,0.242 5.3,0.402 7.8,0.449 2.5,0.051 4.65,0.082 6.45,0.082 0,2.488 -0.05,4.437 -0.15,5.848 -0.1,1.39 -0.41,2.793 -0.9,4.203 -0.5,1.386 -1.21,2.5 -2.1,3.297 -0.9,0.8 -1.83,1.421 -2.78,1.871 -0.95,0.449 -1.9,0.742 -2.85,0.902 -0.95,0.148 -1.67,0.227 -2.17,0.227 -1.6,0 -3.15,-0.36 -4.66,-1.059 -1.49,-0.691 -2.74,-1.75 -3.75,-3.141 -0.8,-1.3 -1.27,-2.527 -1.42,-3.687 -0.15,-1.141 -0.23,-2.16 -0.23,-3.063 h -21.74 c 0,0.993 0.07,2.211 0.22,3.672 0.15,1.438 0.53,3 1.13,4.649 0.59,1.652 1.44,3.3 2.55,4.949 1.1,1.652 2.64,3.172 4.65,4.57 3.5,2.5 7.3,4.153 11.4,4.949 4.09,0.801 7.95,1.204 11.55,1.204 1.6,0 3.55,-0.102 5.84,-0.301 2.3,-0.199 4.71,-0.653 7.21,-1.352 2.5,-0.699 4.97,-1.668 7.42,-2.918 2.45,-1.25 4.63,-2.98 6.52,-5.172 1.31,-1.507 2.31,-3.179 3.01,-5.027 0.69,-1.852 1.22,-3.633 1.57,-5.332 0.34,-1.691 0.55,-3.281 0.6,-4.719 0.06,-1.449 0.08,-2.633 0.08,-3.531 l 0.15,-30.449 c 0,-3.199 0.12,-6.391 0.37,-9.602 0.25,-3.199 0.73,-6.39 1.43,-9.597 h -20.1"
         style="fill:#231f20;fill-opacity:1;fill-rule:nonzero;stroke:none"
         id="path72" />
      <path
         d="m 1386.7,313.148 h 22.19 v -63.75 l 22.95,31.661 h 25.06 l -25.96,-33 27.62,-43.207 h -26.25 l -23.42,41.25 v -41.25 h -22.19 v 108.296"
         style="fill:#231f20;fill-opacity:1;fill-rule:nonzero;stroke:none"
         id="path74" />
      <path
         d="m 1473.11,267.102 c 0,0.097 0,0.617 0,1.578 0,0.949 -0.04,2.101 -0.08,3.449 -0.06,1.351 -0.1,2.82 -0.15,4.422 -0.04,1.597 -0.12,3.051 -0.22,4.359 h 21.29 l 0.61,-11.41 c 0.5,0.898 1.3,2.082 2.4,3.531 1.09,1.438 2.6,2.899 4.49,4.348 1.91,1.453 4.3,2.703 7.21,3.75 2.89,1.051 6.4,1.582 10.51,1.582 3.69,0 6.89,-0.512 9.58,-1.512 2.7,-0.988 4.99,-2.23 6.84,-3.668 1.84,-1.461 3.28,-3 4.34,-4.652 1.05,-1.649 1.83,-3.117 2.32,-4.418 0.41,-1.199 0.76,-2.391 1.06,-3.531 0.29,-1.149 0.52,-2.551 0.68,-4.2 0.14,-1.648 0.23,-3.679 0.29,-6.07 0.04,-2.398 0.08,-5.351 0.08,-8.859 v -40.949 h -22.66 v 47.097 c 0,1.61 -0.05,3.082 -0.15,4.43 -0.1,1.34 -0.45,2.621 -1.04,3.832 -0.8,1.687 -2.09,3.187 -3.83,4.5 -1.75,1.301 -4.08,1.937 -6.97,1.937 -2.4,0 -4.63,-0.519 -6.68,-1.566 -2.05,-1.051 -3.67,-2.473 -4.88,-4.281 -0.7,-0.992 -1.33,-2.449 -1.88,-4.34 -0.54,-1.91 -0.82,-4.313 -0.82,-7.199 v -44.41 h -22.34 v 62.25"
         style="fill:#231f20;fill-opacity:1;fill-rule:nonzero;stroke:none"
         id="path76" />
      <path
         d="m 1567.45,280.75 h 22.2 v -75.898 h -22.2 z m -0.75,32.398 h 23.7 v -19.347 h -23.7 v 19.347"
         style="fill:#231f20;fill-opacity:1;fill-rule:nonzero;stroke:none"
         id="path78" />
      <path
         d="m 1612.76,313.148 h 22.05 v -42.777 c 0.59,0.891 1.44,1.969 2.54,3.258 1.09,1.293 2.5,2.531 4.2,3.711 1.7,1.199 3.77,2.211 6.23,3.051 2.44,0.839 5.43,1.257 8.92,1.257 2.8,0 5.36,-0.316 7.66,-0.976 2.29,-0.641 4.38,-1.442 6.21,-2.391 1.86,-0.961 3.46,-2.031 4.81,-3.23 1.34,-1.192 2.48,-2.391 3.37,-3.59 1.41,-1.91 2.58,-4.563 3.52,-7.949 0.96,-3.403 1.43,-7.614 1.43,-12.602 v -46.058 h -22.19 v 45.41 c 0,1.109 -0.08,2.578 -0.24,4.437 -0.13,1.852 -0.58,3.68 -1.32,5.492 -0.75,1.797 -1.96,3.36 -3.64,4.661 -1.7,1.296 -4.06,1.957 -7.13,1.957 -1.58,0 -3.2,-0.258 -4.86,-0.75 -1.64,-0.508 -3.16,-1.36 -4.57,-2.559 -1.41,-1.199 -2.54,-2.789 -3.46,-4.738 -0.89,-1.953 -1.34,-4.43 -1.34,-7.442 l 0.15,-46.468 h -22.34 v 108.296"
         style="fill:#231f20;fill-opacity:1;fill-rule:nonzero;stroke:none"
         id="path80" />
      <path
         d="m 1726.16,241.898 c 0,-8.5 1.38,-14.668 4.2,-18.519 2.79,-3.848 6.95,-5.77 12.44,-5.77 2.4,0 4.63,0.391 6.68,1.192 2.05,0.801 3.77,2.211 5.17,4.211 1.41,1.988 2.5,4.668 3.3,8.019 0.8,3.348 1.2,7.528 1.2,12.528 0,2.5 -0.18,5.14 -0.53,7.941 -0.35,2.809 -1.1,5.398 -2.25,7.809 -1.15,2.39 -2.83,4.371 -5.02,5.91 -2.2,1.562 -5.15,2.332 -8.85,2.332 -4.1,0 -7.24,-1.031 -9.45,-3.071 -2.21,-2.05 -3.81,-4.449 -4.8,-7.199 -1,-2.75 -1.6,-5.582 -1.8,-8.48 -0.2,-2.903 -0.29,-5.199 -0.29,-6.903 z m -22.82,0.153 c 0,4.597 0.67,9.281 1.96,14.019 1.31,4.762 3.45,9.09 6.44,12.981 3.01,3.898 7.01,7.097 12.01,9.597 5,2.5 11.25,3.75 18.75,3.75 6.9,0 12.82,-1.066 17.78,-3.218 4.94,-2.149 9.02,-5.051 12.22,-8.7 3.21,-3.648 5.55,-7.871 7.06,-12.679 1.5,-4.789 2.24,-9.852 2.24,-15.141 0,-5.308 -0.78,-10.398 -2.32,-15.308 -1.56,-4.903 -3.95,-9.223 -7.21,-12.973 -3.24,-3.75 -7.36,-6.719 -12.36,-8.93 -5,-2.199 -10.96,-3.289 -17.85,-3.289 -5.41,0 -10.45,0.82 -15.16,2.469 -4.71,1.652 -8.81,4.152 -12.31,7.5 -3.49,3.351 -6.25,7.519 -8.24,12.531 -2.01,4.988 -3.01,10.789 -3.01,17.391"
         style="fill:#231f20;fill-opacity:1;fill-rule:nonzero;stroke:none"
         id="path82" />
      <path
         d="m 1813.44,280.609 17.11,-51.461 17.4,51.461 h 21.45 l -27.31,-75.757 h -24.59 l -27.75,75.757 h 23.69"
         style="fill:#231f20;fill-opacity:1;fill-rule:nonzero;stroke:none"
         id="path84" />
      <path
         d="m 1885.16,267.102 c 0,0.097 0,0.617 0,1.578 0,0.949 -0.04,2.101 -0.08,3.449 -0.06,1.351 -0.09,2.82 -0.15,4.422 -0.04,1.597 -0.12,3.051 -0.22,4.359 H 1906 l 0.61,-11.41 c 0.5,0.898 1.31,2.082 2.4,3.531 1.09,1.438 2.6,2.899 4.49,4.348 1.92,1.453 4.3,2.703 7.21,3.75 2.89,1.051 6.4,1.582 10.51,1.582 3.69,0 6.89,-0.512 9.59,-1.512 2.69,-0.988 4.98,-2.23 6.83,-3.668 1.84,-1.461 3.28,-3 4.34,-4.652 1.05,-1.649 1.83,-3.117 2.32,-4.418 0.41,-1.199 0.76,-2.391 1.06,-3.531 0.29,-1.149 0.52,-2.551 0.68,-4.2 0.14,-1.648 0.23,-3.679 0.29,-6.07 0.04,-2.398 0.08,-5.351 0.08,-8.859 v -40.949 h -22.66 v 47.097 c 0,1.61 -0.05,3.082 -0.15,4.43 -0.1,1.34 -0.45,2.621 -1.04,3.832 -0.8,1.687 -2.09,3.187 -3.82,4.5 -1.76,1.301 -4.09,1.937 -6.98,1.937 -2.4,0 -4.63,-0.519 -6.68,-1.566 -2.05,-1.051 -3.67,-2.473 -4.88,-4.281 -0.7,-0.992 -1.33,-2.449 -1.87,-4.34 -0.55,-1.91 -0.83,-4.313 -0.83,-7.199 v -44.41 h -22.34 v 62.25"
         style="fill:#231f20;fill-opacity:1;fill-rule:nonzero;stroke:none"
         id="path86" />
      <path
         d="m 2022.11,240.559 c -3.61,0.293 -6.89,0.242 -9.82,-0.161 -2.97,-0.398 -5.53,-1.117 -7.73,-2.168 -2.21,-1.05 -3.91,-2.429 -5.1,-4.128 -1.21,-1.704 -1.8,-3.653 -1.8,-5.852 0,-1.301 0.22,-2.578 0.67,-3.828 0.44,-1.25 1.13,-2.391 2.03,-3.442 0.89,-1.05 2.03,-1.898 3.38,-2.55 1.34,-0.66 2.93,-0.981 4.72,-0.981 1.99,0 3.79,0.43 5.39,1.281 1.6,0.852 2.95,1.879 4.07,3.079 1.99,2.39 3.18,5.089 3.59,8.089 0.39,3 0.6,6.563 0.6,10.661 z m 2.84,-35.707 c -0.39,2.296 -0.63,4.328 -0.67,6.078 -0.06,1.75 -0.08,3.172 -0.08,4.281 -2.09,-3 -4.27,-5.332 -6.52,-6.981 -2.25,-1.648 -4.37,-2.851 -6.37,-3.601 -2.01,-0.75 -3.88,-1.199 -5.62,-1.348 -1.76,-0.152 -3.13,-0.222 -4.14,-0.222 -5.49,0 -9.65,0.64 -12.44,1.941 -2.8,1.301 -4.94,2.66 -6.45,4.051 -2.3,2.308 -3.98,4.91 -5.04,7.808 -1.03,2.903 -1.56,5.852 -1.56,8.84 0,1.512 0.18,3.27 0.53,5.332 0.35,2.051 1.09,4.149 2.24,6.289 1.16,2.16 2.78,4.282 4.87,6.379 2.11,2.102 4.9,3.961 8.41,5.563 2.29,0.988 4.83,1.797 7.56,2.386 2.76,0.614 5.49,1.032 8.19,1.282 2.69,0.242 5.29,0.402 7.79,0.449 2.5,0.051 4.65,0.082 6.46,0.082 0,2.488 -0.05,4.437 -0.15,5.848 -0.1,1.39 -0.41,2.793 -0.9,4.203 -0.51,1.386 -1.21,2.5 -2.11,3.297 -0.9,0.8 -1.82,1.421 -2.77,1.871 -0.96,0.449 -1.9,0.742 -2.85,0.902 -0.94,0.148 -1.68,0.227 -2.17,0.227 -1.6,0 -3.15,-0.36 -4.65,-1.059 -1.51,-0.691 -2.76,-1.75 -3.75,-3.141 -0.8,-1.3 -1.27,-2.527 -1.43,-3.687 -0.15,-1.141 -0.23,-2.16 -0.23,-3.063 h -21.74 c 0,0.993 0.08,2.211 0.22,3.672 0.15,1.438 0.52,3 1.13,4.649 0.6,1.652 1.44,3.3 2.54,4.949 1.11,1.652 2.65,3.172 4.67,4.57 3.49,2.5 7.28,4.153 11.38,4.949 4.1,0.801 7.95,1.204 11.56,1.204 1.59,0 3.54,-0.102 5.84,-0.301 2.31,-0.199 4.71,-0.653 7.21,-1.352 2.5,-0.699 4.96,-1.668 7.42,-2.918 2.44,-1.25 4.63,-2.98 6.53,-5.172 1.29,-1.507 2.3,-3.179 3,-5.027 0.69,-1.852 1.22,-3.633 1.57,-5.332 0.35,-1.691 0.54,-3.281 0.6,-4.719 0.04,-1.449 0.08,-2.633 0.08,-3.531 l 0.14,-30.449 c 0,-3.199 0.13,-6.391 0.39,-9.602 0.23,-3.199 0.72,-6.39 1.42,-9.597 h -20.11"
         style="fill:#231f20;fill-opacity:1;fill-rule:nonzero;stroke:none"
         id="path88" />
      <path
         d="M 0.410156,138.148 H 34.0156 L 74.6641,52.9492 V 138.148 H 96.2617 V 29.8516 H 64.3125 L 22.3086,119.852 V 29.8516 H 0.410156 V 138.148"
         style="fill:#231f20;fill-opacity:1;fill-rule:nonzero;stroke:none"
         id="path90" />
      <path
         d="m 161.66,65.5586 c -3.597,0.293 -6.875,0.2422 -9.824,-0.1602 -2.949,-0.3984 -5.527,-1.1171 -7.727,-2.1679 -2.199,-1.0508 -3.898,-2.4297 -5.093,-4.1289 -1.203,-1.7032 -1.805,-3.6524 -1.805,-5.8516 0,-1.3008 0.227,-2.5781 0.676,-3.8281 0.449,-1.25 1.129,-2.3906 2.023,-3.4414 0.903,-1.0508 2.028,-1.8985 3.375,-2.5508 1.356,-0.6602 2.926,-0.9805 4.727,-0.9805 2,0 3.801,0.4297 5.402,1.2813 1.598,0.8515 2.949,1.8789 4.047,3.0781 2.004,2.3906 3.199,5.0898 3.598,8.0898 0.402,3 0.601,6.5625 0.601,10.6602 z m 2.852,-35.707 c -0.403,2.2968 -0.625,4.3281 -0.672,6.0781 -0.055,1.75 -0.078,3.1719 -0.078,4.2812 -2.102,-3 -4.274,-5.332 -6.528,-6.9804 -2.25,-1.6485 -4.375,-2.8516 -6.375,-3.6016 -1.996,-0.75 -3.871,-1.1992 -5.625,-1.3476 -1.75,-0.1524 -3.125,-0.2227 -4.121,-0.2227 -5.504,0 -9.652,0.6406 -12.453,1.9414 -2.801,1.3008 -4.949,2.6602 -6.449,4.0508 -2.301,2.3086 -3.973,4.9101 -5.023,7.8086 -1.051,2.9023 -1.579,5.8515 -1.579,8.8398 0,1.5117 0.176,3.2696 0.528,5.3321 0.347,2.0507 1.097,4.1484 2.254,6.289 1.144,2.1602 2.769,4.2813 4.871,6.3789 2.097,2.1016 4.898,3.961 8.398,5.5625 2.301,0.9883 4.824,1.7969 7.578,2.3867 2.75,0.6133 5.473,1.0313 8.172,1.2813 2.703,0.2422 5.301,0.4023 7.801,0.4492 2.5,0.0508 4.652,0.082 6.449,0.082 0,2.4883 -0.051,4.4375 -0.144,5.8477 -0.106,1.3906 -0.407,2.793 -0.907,4.2031 -0.496,1.3867 -1.199,2.5 -2.097,3.2969 -0.899,0.8008 -1.828,1.4219 -2.774,1.8711 -0.953,0.4492 -1.898,0.7422 -2.851,0.9023 -0.953,0.1485 -1.676,0.2266 -2.172,0.2266 -1.606,0 -3.152,-0.3594 -4.656,-1.0586 -1.496,-0.6914 -2.746,-1.75 -3.75,-3.1406 -0.801,-1.3008 -1.274,-2.5274 -1.418,-3.6875 -0.153,-1.1406 -0.231,-2.1602 -0.231,-3.0625 h -21.75 c 0,0.9922 0.074,2.2109 0.227,3.6719 0.148,1.4375 0.527,3 1.129,4.6484 0.593,1.6523 1.445,3.3008 2.547,4.9492 1.097,1.6524 2.648,3.1721 4.648,4.5701 3.5,2.5 7.301,4.153 11.402,4.949 4.098,0.801 7.95,1.204 11.547,1.204 1.602,0 3.551,-0.102 5.852,-0.301 2.297,-0.199 4.699,-0.653 7.199,-1.352 2.5,-0.699 4.973,-1.668 7.43,-2.918 2.445,-1.25 4.621,-2.98 6.519,-5.1716 1.301,-1.5078 2.301,-3.1797 3,-5.0274 0.699,-1.8515 1.227,-3.6328 1.578,-5.332 0.348,-1.6914 0.547,-3.2812 0.602,-4.7187 0.047,-1.4493 0.07,-2.6329 0.07,-3.5313 l 0.153,-30.4492 c 0,-3.1992 0.121,-6.3906 0.375,-9.6016 0.246,-3.1992 0.722,-6.3906 1.421,-9.5976 h -20.097"
         style="fill:#231f20;fill-opacity:1;fill-rule:nonzero;stroke:none"
         id="path92" />
      <path
         d="m 250.16,30.9102 c -3.597,-1.0118 -6.922,-1.6485 -9.972,-1.9493 -3.047,-0.3125 -5.477,-0.4492 -7.274,-0.4492 -5.641,0 -9.969,0.7696 -12.988,2.3203 -3.024,1.5391 -5.235,3.3985 -6.645,5.5469 -1.41,2.1524 -2.242,4.3711 -2.492,6.6797 -0.254,2.293 -0.375,4.25 -0.375,5.8516 v 41.539 h -14.551 v 14.8518 h 14.551 v 14.758 l 22.199,8.05 v -22.808 h 18 V 90.4492 h -18 V 56.25 c 0,-1.6992 0.075,-3.25 0.223,-4.6484 0.152,-1.3907 0.527,-2.6016 1.129,-3.5899 0.598,-1.0117 1.57,-1.7617 2.926,-2.2617 1.347,-0.5 3.269,-0.75 5.769,-0.75 1.699,0 3.028,0.0313 3.977,0.082 0.953,0.0469 2.125,0.168 3.523,0.3672 v -14.539"
         style="fill:#231f20;fill-opacity:1;fill-rule:nonzero;stroke:none"
         id="path94" />
      <path
         d="m 266.813,105.75 h 22.195 V 29.8516 h -22.195 z m -0.754,32.398 h 23.703 v -19.347 h -23.703 v 19.347"
         style="fill:#231f20;fill-opacity:1;fill-rule:nonzero;stroke:none"
         id="path96" />
      <path
         d="m 330.859,66.8984 c 0,-8.5 1.399,-14.6679 4.2,-18.5195 2.796,-3.8476 6.949,-5.7695 12.453,-5.7695 2.394,0 4.621,0.3906 6.672,1.1914 2.046,0.8008 3.769,2.2109 5.171,4.2109 1.403,1.9883 2.5,4.668 3.301,8.0196 0.801,3.3476 1.199,7.5273 1.199,12.5273 0,2.5 -0.171,5.1406 -0.519,7.9414 -0.352,2.8086 -1.106,5.3984 -2.25,7.8086 -1.152,2.3906 -2.828,4.3711 -5.027,5.9102 -2.204,1.5625 -5.153,2.332 -8.852,2.332 -4.102,0 -7.25,-1.0313 -9.449,-3.0703 -2.199,-2.0508 -3.805,-4.4492 -4.797,-7.1992 -1.004,-2.75 -1.606,-5.5821 -1.805,-8.4805 -0.199,-2.9024 -0.297,-5.1992 -0.297,-6.9024 z m -22.8,0.1524 c 0,4.5976 0.648,9.2812 1.953,14.0195 1.297,4.7617 3.445,9.0899 6.449,12.9805 2.996,3.8984 6.996,7.0972 11.996,9.5972 5,2.5 11.25,3.75 18.75,3.75 6.898,0 12.828,-1.066 17.773,-3.218 4.954,-2.149 9.024,-5.0511 12.227,-8.6995 3.199,-3.6485 5.551,-7.8711 7.051,-12.6797 1.5,-4.7891 2.25,-9.8516 2.25,-15.1406 0,-5.3086 -0.778,-10.3985 -2.324,-15.3086 -1.551,-4.9024 -3.954,-9.2227 -7.204,-12.9727 -3.25,-3.75 -7.371,-6.7187 -12.371,-8.9297 -5.004,-2.1992 -10.953,-3.289 -17.851,-3.289 -5.403,0 -10.449,0.8203 -15.153,2.4687 -4.703,1.6524 -8.796,4.1524 -12.296,7.5 -3.504,3.3516 -6.25,7.5195 -8.25,12.5313 -2,4.9882 -3,10.789 -3,17.3906"
         style="fill:#231f20;fill-opacity:1;fill-rule:nonzero;stroke:none"
         id="path98" />
      <path
         d="m 406.453,92.1016 c 0,0.0976 0,0.6172 0,1.5781 0,0.9492 -0.023,2.1016 -0.07,3.4492 -0.055,1.3516 -0.106,2.8203 -0.153,4.4221 -0.046,1.597 -0.125,3.051 -0.222,4.359 h 21.297 l 0.601,-11.41 c 0.496,0.8984 1.297,2.082 2.403,3.5313 1.097,1.4375 2.597,2.8987 4.496,4.3477 1.898,1.453 4.3,2.703 7.203,3.75 2.898,1.051 6.394,1.582 10.496,1.582 3.703,0 6.898,-0.512 9.601,-1.512 2.7,-0.988 4.973,-2.23 6.825,-3.668 1.851,-1.461 3.3,-2.9997 4.351,-4.6521 1.051,-1.6484 1.821,-3.1172 2.324,-4.418 0.403,-1.1992 0.75,-2.3906 1.051,-3.5312 0.301,-1.1484 0.528,-2.5508 0.672,-4.1992 0.152,-1.6485 0.25,-3.6797 0.305,-6.0703 0.047,-2.3985 0.07,-5.3516 0.07,-8.8594 V 29.8516 h -22.644 v 47.0976 c 0,1.6094 -0.055,3.0821 -0.153,4.4297 -0.101,1.3399 -0.449,2.6211 -1.051,3.832 -0.796,1.6875 -2.078,3.1875 -3.828,4.5 -1.746,1.3008 -4.07,1.9375 -6.968,1.9375 -2.407,0 -4.629,-0.5195 -6.676,-1.5664 -2.051,-1.0507 -3.68,-2.4726 -4.879,-4.2812 -0.699,-0.9922 -1.324,-2.4492 -1.875,-4.3399 -0.547,-1.9101 -0.82,-4.3125 -0.82,-7.1992 V 29.8516 h -22.356 v 62.25"
         style="fill:#231f20;fill-opacity:1;fill-rule:nonzero;stroke:none"
         id="path100" />
      <path
         d="m 543.402,65.5586 c -3.597,0.293 -6.875,0.2422 -9.824,-0.1602 -2.949,-0.3984 -5.527,-1.1171 -7.723,-2.1679 -2.203,-1.0508 -3.902,-2.4297 -5.097,-4.1289 -1.203,-1.7032 -1.805,-3.6524 -1.805,-5.8516 0,-1.3008 0.227,-2.5781 0.676,-3.8281 0.449,-1.25 1.129,-2.3906 2.027,-3.4414 0.899,-1.0508 2.028,-1.8985 3.371,-2.5508 1.356,-0.6602 2.926,-0.9805 4.731,-0.9805 1.996,0 3.797,0.4297 5.398,1.2813 1.598,0.8515 2.949,1.8789 4.047,3.0781 2.004,2.3906 3.199,5.0898 3.602,8.0898 0.398,3 0.597,6.5625 0.597,10.6602 z m 2.852,-35.707 c -0.399,2.2968 -0.625,4.3281 -0.672,6.0781 -0.055,1.75 -0.078,3.1719 -0.078,4.2812 -2.102,-3 -4.274,-5.332 -6.524,-6.9804 -2.25,-1.6485 -4.375,-2.8516 -6.378,-3.6016 -1.997,-0.75 -3.872,-1.1992 -5.625,-1.3476 -1.747,-0.1524 -3.125,-0.2227 -4.122,-0.2227 -5.5,0 -9.652,0.6406 -12.449,1.9414 -2.804,1.3008 -4.953,2.6602 -6.453,4.0508 -2.297,2.3086 -3.973,4.9101 -5.023,7.8086 -1.047,2.9023 -1.575,5.8515 -1.575,8.8398 0,1.5117 0.172,3.2696 0.528,5.3321 0.344,2.0507 1.097,4.1484 2.25,6.289 1.144,2.1602 2.773,4.2813 4.871,6.3789 2.101,2.1016 4.898,3.961 8.398,5.5625 2.301,0.9883 4.825,1.7969 7.578,2.3867 2.75,0.6133 5.473,1.0313 8.176,1.2813 2.699,0.2422 5.297,0.4023 7.797,0.4492 2.5,0.0508 4.652,0.082 6.449,0.082 0,2.4883 -0.047,4.4375 -0.144,5.8477 -0.106,1.3906 -0.406,2.793 -0.903,4.2031 -0.5,1.3867 -1.203,2.5 -2.101,3.2969 -0.899,0.8008 -1.824,1.4219 -2.774,1.8711 -0.953,0.4492 -1.898,0.7422 -2.851,0.9023 -0.953,0.1485 -1.676,0.2266 -2.172,0.2266 -1.602,0 -3.148,-0.3594 -4.652,-1.0586 -1.5,-0.6914 -2.75,-1.75 -3.75,-3.1406 -0.801,-1.3008 -1.278,-2.5274 -1.422,-3.6875 -0.153,-1.1406 -0.231,-2.1602 -0.231,-3.0625 h -21.75 c 0,0.9922 0.075,2.2109 0.227,3.6719 0.152,1.4375 0.527,3 1.129,4.6484 0.594,1.6523 1.445,3.3008 2.547,4.9492 1.097,1.6524 2.648,3.1721 4.648,4.5701 3.5,2.5 7.301,4.153 11.402,4.949 4.098,0.801 7.95,1.204 11.547,1.204 1.602,0 3.551,-0.102 5.852,-0.301 2.301,-0.199 4.699,-0.653 7.199,-1.352 2.5,-0.699 4.973,-1.668 7.43,-2.918 2.445,-1.25 4.625,-2.98 6.523,-5.1716 1.297,-1.5078 2.297,-3.1797 2.996,-5.0274 0.7,-1.8515 1.227,-3.6328 1.578,-5.332 0.348,-1.6914 0.547,-3.2812 0.602,-4.7187 0.047,-1.4493 0.07,-2.6329 0.07,-3.5313 l 0.153,-30.4492 c 0,-3.1992 0.125,-6.3906 0.379,-9.6016 0.242,-3.1992 0.718,-6.3906 1.418,-9.5976 h -20.098"
         style="fill:#231f20;fill-opacity:1;fill-rule:nonzero;stroke:none"
         id="path102" />
      <path
         d="m 587.207,138.148 h 22.195 V 29.8516 H 587.207 V 138.148"
         style="fill:#231f20;fill-opacity:1;fill-rule:nonzero;stroke:none"
         id="path104" />
      <path
         d="m 677.207,138.148 h 23.695 V 48.3008 h 46.504 V 29.8516 H 677.207 V 138.148"
         style="fill:#231f20;fill-opacity:1;fill-rule:nonzero;stroke:none"
         id="path106" />
      <path
         d="m 763.008,105.75 h 22.195 V 29.8516 h -22.195 z m -0.75,32.398 h 23.699 v -19.347 h -23.699 v 19.347"
         style="fill:#231f20;fill-opacity:1;fill-rule:nonzero;stroke:none"
         id="path108" />
      <path
         d="m 860.957,65.8516 c 0,1.5 -0.098,3.6992 -0.297,6.5976 -0.199,2.9024 -0.824,5.7813 -1.875,8.6211 -1.051,2.8594 -2.676,5.3594 -4.875,7.5 -2.199,2.1602 -5.301,3.2383 -9.301,3.2383 -4.101,0 -7.25,-1.0078 -9.449,-3.0078 -2.199,-1.9922 -3.828,-4.3008 -4.879,-6.9024 -1.047,-2.5898 -1.648,-5.1992 -1.797,-7.7968 -0.148,-2.6016 -0.226,-4.5 -0.226,-5.6914 0,-8.6993 1.625,-15.1289 4.879,-19.2813 3.246,-4.1484 7.422,-6.2305 12.523,-6.2305 3.797,0 6.746,1.0118 8.848,3.0118 2.101,1.9882 3.629,4.3086 4.574,6.9687 0.953,2.6524 1.504,5.2305 1.648,7.7305 0.153,2.5 0.227,4.2422 0.227,5.2422 z m -54,72.2964 H 829.16 V 96.4609 c 1.899,2.5 3.899,4.4181 6,5.7691 2.102,1.34 4.121,2.352 6.074,2.989 1.95,0.66 3.75,1.062 5.403,1.211 1.648,0.152 2.972,0.218 3.972,0.218 4.594,0 8.899,-0.898 12.903,-2.687 4,-1.801 7.5,-4.4102 10.496,-7.8126 3,-3.3984 5.347,-7.5781 7.051,-12.5195 1.699,-4.9492 2.55,-10.6289 2.55,-17.0273 0,-7.1016 -0.953,-13.0703 -2.851,-17.9219 -1.903,-4.8477 -4.348,-8.7813 -7.352,-11.7813 -2.996,-2.9882 -6.371,-5.1679 -10.121,-6.5195 -3.75,-1.3476 -7.527,-2.0273 -11.328,-2.0273 -1,0 -2.426,0.0781 -4.269,0.2187 -1.86,0.1602 -3.856,0.6406 -6.004,1.4297 -2.153,0.8008 -4.348,2 -6.602,3.6016 -2.25,1.6093 -4.223,3.8984 -5.922,6.9101 -0.101,-1.2031 -0.207,-2.7109 -0.305,-4.5 -0.093,-1.8125 -0.246,-3.8633 -0.449,-6.1601 H 806.957 V 138.148"
         style="fill:#231f20;fill-opacity:1;fill-rule:nonzero;stroke:none"
         id="path110" />
      <path
         d="m 902.359,87 c 0,0.8984 -0.023,2.1797 -0.078,3.832 -0.051,1.6485 -0.125,3.418 -0.226,5.3164 -0.098,1.9102 -0.223,3.7227 -0.371,5.4806 -0.153,1.75 -0.278,3.18 -0.375,4.281 h 20.847 l 0.449,-14.5506 c 0.7,1.5898 1.598,3.3008 2.704,5.1015 1.097,1.7891 2.597,3.4375 4.5,4.9491 1.894,1.488 4.347,2.692 7.347,3.59 3,0.91 6.75,1.25 11.25,1.059 V 86.1016 c -5.597,0.5 -10,0.25 -13.203,-0.75 -3.195,-0.9922 -5.598,-2.4532 -7.195,-4.3399 -1.602,-1.9101 -2.578,-4.0898 -2.926,-6.5312 -0.352,-2.4492 -0.527,-4.8789 -0.527,-7.2696 V 29.8516 H 902.359 V 87"
         style="fill:#231f20;fill-opacity:1;fill-rule:nonzero;stroke:none"
         id="path112" />
      <path
         d="m 1003.31,65.5586 c -3.603,0.293 -6.88,0.2422 -9.83,-0.1602 -2.949,-0.3984 -5.527,-1.1171 -7.722,-2.1679 -2.203,-1.0508 -3.903,-2.4297 -5.098,-4.1289 -1.203,-1.7032 -1.805,-3.6524 -1.805,-5.8516 0,-1.3008 0.227,-2.5781 0.676,-3.8281 0.449,-1.25 1.129,-2.3906 2.028,-3.4414 0.898,-1.0508 2.027,-1.8985 3.375,-2.5508 1.351,-0.6602 2.921,-0.9805 4.722,-0.9805 2,0 3.801,0.4297 5.403,1.2813 1.597,0.8515 2.949,1.8789 4.046,3.0781 2.005,2.3906 3.195,5.0898 3.605,8.0898 0.4,3 0.6,6.5625 0.6,10.6602 z m 2.85,-35.707 c -0.4,2.2968 -0.63,4.3281 -0.68,6.0781 -0.05,1.75 -0.07,3.1719 -0.07,4.2812 -2.1,-3 -4.28,-5.332 -6.527,-6.9804 -2.25,-1.6485 -4.375,-2.8516 -6.379,-3.6016 -1.996,-0.75 -3.871,-1.1992 -5.625,-1.3476 -1.746,-0.1524 -3.125,-0.2227 -4.121,-0.2227 -5.5,0 -9.653,0.6406 -12.449,1.9414 -2.805,1.3008 -4.954,2.6602 -6.454,4.0508 -2.296,2.3086 -3.972,4.9101 -5.023,7.8086 -1.051,2.9023 -1.574,5.8515 -1.574,8.8398 0,1.5117 0.176,3.2696 0.523,5.3321 0.348,2.0507 1.102,4.1484 2.254,6.289 1.149,2.1602 2.774,4.2813 4.871,6.3789 2.102,2.1016 4.899,3.961 8.399,5.5625 2.3,0.9883 4.824,1.7969 7.578,2.3867 2.75,0.6133 5.472,1.0313 8.176,1.2813 2.699,0.2422 5.296,0.4023 7.796,0.4492 2.5,0.0508 4.655,0.082 6.455,0.082 0,2.4883 -0.05,4.4375 -0.15,5.8477 -0.1,1.3906 -0.41,2.793 -0.9,4.2031 -0.5,1.3867 -1.21,2.5 -2.1,3.2969 -0.902,0.8008 -1.832,1.4219 -2.777,1.8711 -0.953,0.4492 -1.899,0.7422 -2.852,0.9023 -0.953,0.1485 -1.676,0.2266 -2.172,0.2266 -1.601,0 -3.148,-0.3594 -4.656,-1.0586 -1.496,-0.6914 -2.746,-1.75 -3.75,-3.1406 -0.801,-1.3008 -1.273,-2.5274 -1.418,-3.6875 -0.152,-1.1406 -0.23,-2.1602 -0.23,-3.0625 h -21.746 c 0,0.9922 0.07,2.2109 0.222,3.6719 0.153,1.4375 0.528,3 1.129,4.6484 0.594,1.6523 1.445,3.3008 2.547,4.9492 1.102,1.6524 2.648,3.1721 4.648,4.5701 3.5,2.5 7.301,4.153 11.403,4.949 4.097,0.801 7.949,1.204 11.547,1.204 1.601,0 3.55,-0.102 5.851,-0.301 2.304,-0.199 4.704,-0.653 7.204,-1.352 2.5,-0.699 4.97,-1.668 7.42,-2.918 2.45,-1.25 4.63,-2.98 6.53,-5.1716 1.3,-1.5078 2.3,-3.1797 3,-5.0274 0.69,-1.8515 1.22,-3.6328 1.57,-5.332 0.35,-1.6914 0.55,-3.2812 0.6,-4.7187 0.05,-1.4493 0.08,-2.6329 0.08,-3.5313 l 0.15,-30.4492 c 0,-3.1992 0.12,-6.3906 0.37,-9.6016 0.25,-3.1992 0.73,-6.3906 1.42,-9.5976 h -20.09"
         style="fill:#231f20;fill-opacity:1;fill-rule:nonzero;stroke:none"
         id="path114" />
      <path
         d="m 1047.11,87 c 0,0.8984 -0.03,2.1797 -0.08,3.832 -0.05,1.6485 -0.12,3.418 -0.22,5.3164 -0.1,1.9102 -0.23,3.7227 -0.37,5.4806 -0.16,1.75 -0.28,3.18 -0.38,4.281 h 20.85 l 0.45,-14.5506 c 0.7,1.5898 1.6,3.3008 2.7,5.1015 1.1,1.7891 2.6,3.4375 4.5,4.9491 1.9,1.488 4.35,2.692 7.35,3.59 3,0.91 6.75,1.25 11.25,1.059 V 86.1016 c -5.6,0.5 -10,0.25 -13.2,-0.75 -3.2,-0.9922 -5.6,-2.4532 -7.2,-4.3399 -1.6,-1.9101 -2.58,-4.0898 -2.93,-6.5312 -0.35,-2.4492 -0.52,-4.8789 -0.52,-7.2696 V 29.8516 h -22.2 V 87"
         style="fill:#231f20;fill-opacity:1;fill-rule:nonzero;stroke:none"
         id="path116" />
      <path
         d="m 1124.8,105.609 16.66,-52.4996 16.95,52.4996 h 22.04 l -28.64,-74.4098 -9.15,-30.14061 h -22.35 l 9.6,28.49221 -29.1,76.0582 h 23.99"
         style="fill:#231f20;fill-opacity:1;fill-rule:nonzero;stroke:none"
         id="path118" />
      <path
         d="m 1258.91,66.8984 c 0,-8.5 1.39,-14.6679 4.2,-18.5195 2.79,-3.8476 6.94,-5.7695 12.45,-5.7695 2.39,0 4.62,0.3906 6.67,1.1914 2.05,0.8008 3.77,2.2109 5.17,4.2109 1.4,1.9883 2.5,4.668 3.3,8.0196 0.8,3.3476 1.2,7.5273 1.2,12.5273 0,2.5 -0.17,5.1406 -0.52,7.9414 -0.35,2.8086 -1.1,5.3984 -2.25,7.8086 -1.15,2.3906 -2.83,4.3711 -5.02,5.9102 -2.21,1.5625 -5.15,2.332 -8.86,2.332 -4.1,0 -7.25,-1.0313 -9.44,-3.0703 -2.21,-2.0508 -3.81,-4.4492 -4.8,-7.1992 -1.01,-2.75 -1.61,-5.5821 -1.81,-8.4805 -0.2,-2.9024 -0.29,-5.1992 -0.29,-6.9024 z m -22.81,0.1524 c 0,4.5976 0.65,9.2812 1.96,14.0195 1.3,4.7617 3.44,9.0899 6.45,12.9805 2.99,3.8984 6.99,7.0972 11.99,9.5972 5,2.5 11.25,3.75 18.75,3.75 6.9,0 12.83,-1.066 17.78,-3.218 4.95,-2.149 9.02,-5.0511 12.22,-8.6995 3.21,-3.6485 5.55,-7.8711 7.05,-12.6797 1.51,-4.7891 2.25,-9.8516 2.25,-15.1406 0,-5.3086 -0.77,-10.3985 -2.32,-15.3086 -1.55,-4.9024 -3.95,-9.2227 -7.2,-12.9727 -3.25,-3.75 -7.37,-6.7187 -12.37,-8.9297 -5.01,-2.1992 -10.96,-3.289 -17.86,-3.289 -5.4,0 -10.44,0.8203 -15.15,2.4687 -4.7,1.6524 -8.8,4.1524 -12.3,7.5 -3.5,3.3516 -6.25,7.5195 -8.24,12.5313 -2.01,4.9882 -3.01,10.789 -3.01,17.3906"
         style="fill:#231f20;fill-opacity:1;fill-rule:nonzero;stroke:none"
         id="path120" />
      <path
         d="m 1335.71,89.8516 h -11.26 v 15.7574 h 11.26 v 10.352 c 0,3.301 0.35,6.41 1.05,9.371 0.71,2.949 2.01,5.52 3.93,7.727 1.91,2.191 4.57,3.91 8.01,5.171 3.41,1.25 7.83,1.879 13.26,1.879 0.8,0 2.19,-0.027 4.2,-0.078 1.99,-0.051 4.59,-0.269 7.79,-0.672 v -15.308 c -1.09,0.199 -1.91,0.328 -2.48,0.371 -0.55,0.058 -1.27,0.078 -2.17,0.078 -2.89,0 -5.1,-0.32 -6.6,-0.98 -1.5,-0.661 -2.62,-1.489 -3.38,-2.489 -0.74,-1.011 -1.17,-2.09 -1.27,-3.261 -0.1,-1.161 -0.15,-2.239 -0.15,-3.25 v -8.911 H 1372 V 89.8516 h -14.1 v -60 h -22.19 v 60"
         style="fill:#231f20;fill-opacity:1;fill-rule:nonzero;stroke:none"
         id="path122" />
      <path
         d="m 1456.45,120.449 h -32.25 v 17.699 h 87.76 v -17.699 h -32.27 V 29.8516 h -23.24 v 90.5974"
         style="fill:#231f20;fill-opacity:1;fill-rule:nonzero;stroke:none"
         id="path124" />
      <path
         d="m 1550.2,76.0586 c 0,0.8906 -0.08,2.2734 -0.23,4.1211 -0.14,1.8516 -0.65,3.7305 -1.49,5.6211 -0.86,1.9101 -2.19,3.5781 -3.98,5.0312 -1.8,1.4493 -4.3,2.1797 -7.5,2.1797 -2.41,0 -4.48,-0.4804 -6.23,-1.4297 -1.74,-0.9531 -3.21,-2.2031 -4.34,-3.75 -1.15,-1.5507 -2.03,-3.3632 -2.64,-5.4023 -0.6,-2.0508 -0.95,-4.1797 -1.05,-6.3711 z M 1522,62.1016 c 0,-1.1914 0.08,-2.9532 0.23,-5.2422 0.14,-2.3086 0.72,-4.5508 1.72,-6.75 1,-2.211 2.52,-4.1289 4.57,-5.7774 2.05,-1.6523 5.02,-2.4726 8.93,-2.4726 2.79,0 5.43,0.6914 7.87,2.1015 2.46,1.3907 4.24,4.1875 5.33,8.3907 h 20.25 c -0.09,-0.8907 -0.23,-1.9727 -0.37,-3.2227 -0.15,-1.25 -0.49,-2.5781 -0.97,-3.9687 -0.51,-1.4102 -1.23,-2.8985 -2.19,-4.5118 -0.94,-1.5976 -2.17,-3.1992 -3.67,-4.7968 -2.8,-2.9024 -6.53,-5.1016 -11.18,-6.5899 C 1547.88,27.75 1542.74,27 1537.15,27 c -1.6,0 -3.53,0.1016 -5.78,0.3086 -2.24,0.2031 -4.61,0.6523 -7.05,1.3398 -2.46,0.711 -4.88,1.6524 -7.3,2.8516 -2.43,1.2109 -4.63,2.8594 -6.66,4.9609 -3.52,3.5899 -6.04,7.8985 -7.54,12.8985 -1.53,5 -2.27,10.539 -2.27,16.6523 0,3.0899 0.22,6.2969 0.69,9.5977 0.44,3.3008 1.25,6.5195 2.4,9.6719 1.17,3.1484 2.77,6.1484 4.84,9 2.05,2.8476 4.71,5.3671 7.93,7.5777 2.91,2 6.15,3.539 9.71,4.641 3.55,1.109 7.42,1.648 11.62,1.648 2.71,0 5.51,-0.296 8.42,-0.886 2.89,-0.614 5.68,-1.614 8.4,-3 2.69,-1.41 5.23,-3.282 7.63,-5.6331 2.4,-2.3476 4.46,-5.2773 6.15,-8.7773 1.31,-2.5899 2.29,-5.2032 2.93,-7.8008 0.65,-2.6016 1.1,-5.1289 1.35,-7.5703 0.26,-2.4492 0.37,-4.7188 0.37,-6.8203 0,-2.1016 -0.04,-3.961 -0.13,-5.5586 H 1522"
         style="fill:#231f20;fill-opacity:1;fill-rule:nonzero;stroke:none"
         id="path126" />
      <path
         d="m 1630.53,78.75 c -0.1,0.6992 -0.25,1.8086 -0.45,3.3008 -0.19,1.5078 -0.64,3.0586 -1.34,4.6484 -0.71,1.6016 -1.68,3.0117 -2.91,4.211 -1.25,1.1914 -2.93,1.8007 -5.02,1.8007 -2.58,0 -4.65,-0.8789 -6.2,-2.6289 -1.54,-1.75 -2.71,-3.8828 -3.51,-6.3828 -0.8,-2.5 -1.33,-5.1289 -1.56,-7.8672 -0.26,-2.75 -0.39,-5.1836 -0.39,-7.2734 0,-1.1094 0.05,-2.6602 0.15,-4.6484 0.1,-2.0118 0.33,-4.1485 0.67,-6.461 0.35,-2.289 0.89,-4.5508 1.64,-6.75 0.74,-2.1875 1.75,-4 3.06,-5.3984 1.1,-1.1016 2.15,-1.7891 3.21,-2.1016 1.03,-0.3008 1.95,-0.4492 2.75,-0.4492 0.59,0 1.41,0.1289 2.44,0.3789 1.06,0.25 2.09,0.8399 3.15,1.8008 1.03,0.9492 2.01,2.3906 2.89,4.3516 0.89,1.9492 1.44,4.6289 1.64,8.0273 h 21.91 c -0.12,-1.5078 -0.25,-3.1602 -0.45,-4.957 -0.21,-1.793 -0.62,-3.6719 -1.29,-5.6211 -0.64,-1.9492 -1.6,-3.961 -2.85,-6 -1.25,-2.0508 -2.97,-3.9688 -5.17,-5.7813 -2.7,-2.289 -5.77,-4.039 -9.22,-5.2383 -3.46,-1.1992 -7.58,-1.8125 -12.37,-1.8125 -5.11,0 -9.8,0.7032 -14.1,2.1016 -4.31,1.4102 -8.2,4.0508 -11.7,7.9492 -3.3,3.8008 -5.74,8.1992 -7.28,13.1992 -1.55,5 -2.33,10.5508 -2.33,16.6524 0,8.6094 1.37,15.5 4.12,20.7109 2.76,5.1875 6.04,9.168 9.83,11.9183 3.81,2.742 7.69,4.55 11.7,5.402 4,0.848 7.24,1.27 9.76,1.27 3.5,0 7.07,-0.52 10.73,-1.571 3.63,-1.051 6.97,-2.699 9.96,-4.949 3,-2.25 5.45,-5.1836 7.36,-8.7734 1.89,-3.6094 2.85,-7.9492 2.85,-13.0586 h -21.68"
         style="fill:#231f20;fill-opacity:1;fill-rule:nonzero;stroke:none"
         id="path128" />
      <path
         d="m 1669.01,138.148 h 22.05 V 95.3711 c 0.59,0.8906 1.44,1.9687 2.54,3.2578 1.09,1.293 2.5,2.5311 4.2,3.7111 1.7,1.199 3.77,2.211 6.23,3.051 2.44,0.839 5.43,1.257 8.92,1.257 2.8,0 5.36,-0.316 7.66,-0.976 2.29,-0.641 4.38,-1.442 6.21,-2.391 1.86,-0.961 3.46,-2.031 4.81,-3.23 1.34,-1.1916 2.48,-2.3908 3.37,-3.5901 1.41,-1.9101 2.58,-4.5625 3.52,-7.9492 0.96,-3.4023 1.43,-7.6133 1.43,-12.6015 V 29.8516 h -22.19 v 45.4101 c 0,1.1094 -0.08,2.5781 -0.24,4.4375 -0.13,1.8516 -0.58,3.6797 -1.32,5.4922 -0.75,1.7969 -1.96,3.3594 -3.64,4.6602 -1.7,1.2968 -4.06,1.957 -7.13,1.957 -1.58,0 -3.2,-0.2578 -4.86,-0.75 -1.64,-0.5078 -3.16,-1.3594 -4.57,-2.5586 -1.41,-1.1992 -2.54,-2.7891 -3.46,-4.7383 -0.89,-1.9531 -1.34,-4.4297 -1.34,-7.4414 l 0.15,-46.4687 h -22.34 V 138.148"
         style="fill:#231f20;fill-opacity:1;fill-rule:nonzero;stroke:none"
         id="path130" />
      <path
         d="m 1763.34,92.1016 c 0,0.0976 0,0.6172 0,1.5781 0,0.9492 -0.01,2.1016 -0.07,3.4492 -0.04,1.3516 -0.1,2.8203 -0.14,4.4221 -0.06,1.597 -0.14,3.051 -0.23,4.359 h 21.3 l 0.61,-11.41 c 0.49,0.8984 1.29,2.082 2.38,3.5313 1.12,1.4375 2.62,2.8987 4.51,4.3477 1.9,1.453 4.3,2.703 7.19,3.75 2.91,1.051 6.41,1.582 10.51,1.582 3.69,0 6.89,-0.512 9.61,-1.512 2.69,-0.988 4.96,-2.23 6.82,-3.668 1.85,-1.461 3.3,-2.9997 4.35,-4.6521 1.06,-1.6484 1.82,-3.1172 2.32,-4.418 0.4,-1.1992 0.75,-2.3906 1.06,-3.5312 0.29,-1.1484 0.51,-2.5508 0.66,-4.1992 0.16,-1.6485 0.26,-3.6797 0.3,-6.0703 0.06,-2.3985 0.07,-5.3516 0.07,-8.8594 V 29.8516 h -22.63 v 47.0976 c 0,1.6094 -0.06,3.0821 -0.16,4.4297 -0.1,1.3399 -0.45,2.6211 -1.05,3.832 -0.8,1.6875 -2.07,3.1875 -3.83,4.5 -1.74,1.3008 -4.06,1.9375 -6.97,1.9375 -2.41,0 -4.63,-0.5195 -6.68,-1.5664 -2.05,-1.0507 -3.68,-2.4726 -4.87,-4.2812 -0.7,-0.9922 -1.32,-2.4492 -1.87,-4.3399 -0.55,-1.9101 -0.82,-4.3125 -0.82,-7.1992 V 29.8516 h -22.37 v 62.25"
         style="fill:#231f20;fill-opacity:1;fill-rule:nonzero;stroke:none"
         id="path132" />
      <path
         d="m 1877.06,66.8984 c 0,-8.5 1.38,-14.6679 4.19,-18.5195 2.8,-3.8476 6.96,-5.7695 12.45,-5.7695 2.4,0 4.63,0.3906 6.68,1.1914 2.05,0.8008 3.77,2.2109 5.17,4.2109 1.41,1.9883 2.5,4.668 3.3,8.0196 0.8,3.3476 1.19,7.5273 1.19,12.5273 0,2.5 -0.17,5.1406 -0.52,7.9414 -0.35,2.8086 -1.1,5.3984 -2.25,7.8086 -1.15,2.3906 -2.83,4.3711 -5.02,5.9102 -2.21,1.5625 -5.16,2.332 -8.85,2.332 -4.1,0 -7.24,-1.0313 -9.45,-3.0703 -2.21,-2.0508 -3.81,-4.4492 -4.8,-7.1992 -1,-2.75 -1.61,-5.5821 -1.8,-8.4805 -0.2,-2.9024 -0.29,-5.1992 -0.29,-6.9024 z m -22.82,0.1524 c 0,4.5976 0.67,9.2812 1.96,14.0195 1.3,4.7617 3.45,9.0899 6.44,12.9805 3.01,3.8984 7.01,7.0972 12.01,9.5972 5,2.5 11.25,3.75 18.75,3.75 6.9,0 12.82,-1.066 17.78,-3.218 4.94,-2.149 9.02,-5.0511 12.22,-8.6995 3.21,-3.6485 5.55,-7.8711 7.05,-12.6797 1.51,-4.7891 2.25,-9.8516 2.25,-15.1406 0,-5.3086 -0.78,-10.3985 -2.32,-15.3086 -1.57,-4.9024 -3.95,-9.2227 -7.21,-12.9727 -3.24,-3.75 -7.36,-6.7187 -12.36,-8.9297 -5,-2.1992 -10.96,-3.289 -17.86,-3.289 -5.41,0 -10.45,0.8203 -15.15,2.4687 -4.71,1.6524 -8.81,4.1524 -12.31,7.5 -3.49,3.3516 -6.25,7.5195 -8.24,12.5313 -2.01,4.9882 -3.01,10.789 -3.01,17.3906"
         style="fill:#231f20;fill-opacity:1;fill-rule:nonzero;stroke:none"
         id="path134" />
      <path
         d="m 1952.35,138.148 h 22.21 V 29.8516 h -22.21 V 138.148"
         style="fill:#231f20;fill-opacity:1;fill-rule:nonzero;stroke:none"
         id="path136" />
      <path
         d="m 2016.39,66.8984 c 0,-8.5 1.41,-14.6679 4.2,-18.5195 2.79,-3.8476 6.95,-5.7695 12.46,-5.7695 2.4,0 4.61,0.3906 6.66,1.1914 2.05,0.8008 3.79,2.2109 5.18,4.2109 1.4,1.9883 2.5,4.668 3.3,8.0196 0.8,3.3476 1.21,7.5273 1.21,12.5273 0,2.5 -0.18,5.1406 -0.53,7.9414 -0.35,2.8086 -1.11,5.3984 -2.24,7.8086 -1.16,2.3906 -2.84,4.3711 -5.04,5.9102 -2.19,1.5625 -5.14,2.332 -8.85,2.332 -4.1,0 -7.25,-1.0313 -9.45,-3.0703 -2.19,-2.0508 -3.79,-4.4492 -4.79,-7.1992 -1.01,-2.75 -1.6,-5.5821 -1.8,-8.4805 -0.21,-2.9024 -0.31,-5.1992 -0.31,-6.9024 z m -22.79,0.1524 c 0,4.5976 0.64,9.2812 1.95,14.0195 1.29,4.7617 3.44,9.0899 6.45,12.9805 2.99,3.8984 6.99,7.0972 11.99,9.5972 5,2.5 11.25,3.75 18.75,3.75 6.91,0 12.83,-1.066 17.77,-3.218 4.96,-2.149 9.03,-5.0511 12.23,-8.6995 3.2,-3.6485 5.55,-7.8711 7.05,-12.6797 1.5,-4.7891 2.25,-9.8516 2.25,-15.1406 0,-5.3086 -0.77,-10.3985 -2.33,-15.3086 -1.54,-4.9024 -3.94,-9.2227 -7.19,-12.9727 -3.26,-3.75 -7.38,-6.7187 -12.38,-8.9297 -5,-2.1992 -10.94,-3.289 -17.85,-3.289 -5.39,0 -10.45,0.8203 -15.14,2.4687 -4.7,1.6524 -8.81,4.1524 -12.3,7.5 -3.5,3.3516 -6.25,7.5195 -8.26,12.5313 -2,4.9882 -2.99,10.789 -2.99,17.3906"
         style="fill:#231f20;fill-opacity:1;fill-rule:nonzero;stroke:none"
         id="path138" />
      <path
         d="m 2110.59,68.5586 c 0,-0.8984 0.08,-2.5781 0.24,-5.0273 0.13,-2.461 0.68,-4.9297 1.64,-7.4297 0.95,-2.5 2.42,-4.7227 4.43,-6.6797 1.99,-1.9414 4.84,-2.9219 8.53,-2.9219 3.91,0 6.92,0.9805 9.01,2.9219 2.11,1.957 3.65,4.1797 4.65,6.6797 0.99,2.5 1.58,4.9297 1.74,7.2773 0.13,2.3399 0.21,3.9297 0.21,4.7305 0,2.1015 -0.16,4.5 -0.45,7.1914 -0.29,2.7109 -0.98,5.2305 -2.03,7.5781 -1.04,2.3399 -2.56,4.332 -4.57,5.9219 -1.99,1.5976 -4.71,2.3984 -8.11,2.3984 -4.2,0 -7.79,-1.75 -10.78,-5.2383 -3.01,-3.5117 -4.51,-9.3125 -4.51,-17.4023 z m 52.95,36.7424 c -0.29,-2.992 -0.55,-5.9221 -0.74,-8.7697 -0.22,-2.8516 -0.31,-6.1797 -0.31,-9.9805 V 30.6094 c 0,-7.0078 -1.27,-12.5274 -3.81,-16.5781 -2.56,-4.05083 -5.76,-7.13286 -9.61,-9.22271 -3.85,-2.09765 -7.97,-3.42968 -12.39,-3.976559 C 2132.29,0.28125 2128.29,0 2124.69,0 2122,0 2118.79,0.210938 2115.1,0.609375 2111.39,1.01172 2107.84,2 2104.44,3.60156 c -3.4,1.60938 -6.35,4.02735 -8.85,7.27734 -2.5,3.25 -3.91,7.7227 -4.2,13.4297 h 21.31 c 0.1,-0.6094 0.27,-1.4766 0.53,-2.6289 0.23,-1.1484 0.82,-2.3008 1.72,-3.4492 0.89,-1.1485 2.18,-2.1719 3.9,-3.0703 1.7,-0.8985 4.05,-1.3594 7.03,-1.3594 3.3,0 6.23,0.8086 8.79,2.3984 2.54,1.6016 4.22,4.1016 5.02,7.5 0.2,0.9024 0.37,1.8321 0.53,2.7696 0.16,0.9609 0.25,2.0625 0.29,3.3125 0.06,1.25 0.1,2.8281 0.16,4.7187 0.04,1.9102 0.08,4.3008 0.08,7.1992 -1.8,-2.3008 -3.62,-4.1484 -5.41,-5.5508 -1.8,-1.3867 -3.6,-2.4492 -5.39,-3.1367 -1.8,-0.7031 -3.54,-1.1523 -5.18,-1.3633 -1.66,-0.1875 -3.12,-0.289 -4.43,-0.289 -5.39,0 -10.12,1.0703 -14.16,3.2226 -4.07,2.1485 -7.39,4.9688 -9.98,8.4766 -2.6,3.4922 -4.55,7.4727 -5.86,11.9219 -1.29,4.4414 -1.96,8.9804 -1.96,13.5781 0,4.793 0.69,9.4531 2.04,13.9414 1.34,4.5 3.37,8.5117 6.07,12 2.69,3.5 6.07,6.301 10.14,8.398 4.04,2.102 8.77,3.161 14.16,3.161 3.39,0 6.32,-0.411 8.79,-1.207 2.44,-0.801 4.49,-1.77 6.15,-2.93 1.64,-1.141 2.93,-2.34 3.88,-3.59 0.96,-1.25 1.74,-2.2734 2.33,-3.082 l 0.76,10.051 h 20.84"
         style="fill:#231f20;fill-opacity:1;fill-rule:nonzero;stroke:none"
         id="path140" />
      <path
         d="m 2199.71,105.609 16.64,-52.4996 16.96,52.4996 h 22.05 L 2226.7,31.1992 2217.54,1.05859 h -22.34 l 9.61,28.49221 -29.1,76.0582 h 24"
         style="fill:#231f20;fill-opacity:1;fill-rule:nonzero;stroke:none"
         id="path142" />
    </g>
  </g>
</svg>
